<svg width="1682" height="495" viewBox="0 0 1682 495" fill="none" xmlns="http://www.w3.org/2000/svg">
<path d="M83.9738 413.738C58.298 393.649 29.8154 368.736 15.3306 339.026C-1.73084 304.032 -2.81404 264.181 9.92791 227.412C29.8861 169.819 65.5299 129.609 114.352 94.2281C133.172 80.5887 152.652 68.2526 173.638 58.1133C203.112 43.872 234.759 35.0792 266.498 27.6142C356.959 6.33727 449.72 -0.30324 542.466 1.35345C554.502 1.56843 566.627 1.24693 578.644 1.90455C651.346 5.88288 735.675 17.7454 804.641 41.7299C860.144 61.0333 948.063 99.7109 974.631 155.21C981.218 168.978 981.924 182.96 976.832 197.313C957.557 251.655 860.563 280.214 809.995 294.557C767.259 306.677 724.683 316.137 681.163 324.746C650.524 330.808 619.683 337.592 588.846 342.487L520.256 353.318C513.751 354.324 493.6 356.402 489.248 358.474C488.684 361.297 488.079 364.111 487.435 366.917C485.602 374.709 484.436 375.482 477.913 379.524C478.142 388.156 478.104 388.875 476.547 397.505C475.289 404.478 465.289 420.295 466.935 424.93C469.956 425.299 492.572 424.423 496.801 424.372L575.248 423.398L755.923 420.315C792.331 419.684 828.779 420.034 865.178 418.562C863.724 414.877 860.636 409.688 858.641 406.095C858.682 404.222 858.78 402.35 858.936 400.483C859.528 393.607 863.051 383.343 865.121 376.734C873.12 350.733 887.698 327.706 908.592 310.134C918.997 301.386 928.302 298.169 937.846 309.76C938.273 319.731 936.762 322.109 933.813 331.781C934.922 335.623 936.294 339.504 937.583 343.3C975.075 306.876 1010.22 275.733 1037.12 229.803C1041.81 221.789 1062.9 180.282 1068.78 178.613C1071.36 178.721 1076.36 181.526 1075.81 183.555C1071.48 199.77 1059.5 214.667 1050.35 228.406C1037.38 247.898 1025.75 267.265 1013.68 287.244C1008.11 296.467 1004.12 307.928 998.309 317.272C991.016 330.146 986.811 344.659 980.701 358.011C976.865 366.389 961.942 402.719 971.486 409.782C978.647 408.412 987.197 383.305 992.322 376.995C999.106 368.64 1025.1 306.811 1039.44 319.8C1039.84 321.08 1040.43 323.21 1039.75 324.494C1033.81 335.648 1006.11 385.917 1013.63 395.986C1024.83 398.684 1046.55 363.079 1052.18 354.074C1055.89 348.144 1057.01 326.947 1068.89 331.047C1070.07 332.199 1071.62 333.414 1071.4 335.434C1070.53 343.851 1056.23 376.98 1063.41 383.451C1076.18 383.828 1084.96 340.397 1100.01 348.91C1103.79 354.979 1095.39 367.797 1093.58 377.598C1107.26 367.104 1107.84 354.87 1117.48 341.782C1120.12 338.199 1123.51 337.239 1126.94 340.338C1131.54 350.663 1115.45 372.907 1122.02 381.235C1131.63 382.538 1146.77 349.488 1159.17 346.157C1162.26 346.714 1161.15 346.204 1163.59 348.503C1167.15 356.902 1156.74 371.972 1161.82 379.665C1170.46 386.686 1189.18 371.37 1197.64 372.936C1200.53 374.882 1200.01 373.972 1201.14 376.804C1199.21 385.061 1172.3 393.514 1164.06 394.957C1154.45 392.678 1149.96 389.324 1146.62 380.2L1144.99 379.73C1132.29 381.875 1132.42 411.81 1106.19 383.021C1096.31 393.431 1092.25 390.39 1079.82 386.463C1076.81 389.437 1074.26 391.759 1071.04 394.513C1042.68 399.008 1056.95 381.369 1049.16 377.018C1045.91 379.264 1044.08 384.216 1041.64 387.211C1037.06 392.837 1027.44 402.964 1021.35 405.953L1021.03 406.113C1017.04 405.852 1013.16 405.398 1009.2 404.954C1007.09 402.947 1005.42 400.32 1003.75 397.918C1003.34 388.77 1007.66 373.801 1005.98 370.65C1002.74 372.919 994.309 394.307 991.665 398.908C989.439 402.792 984.873 411.463 983.501 415.472C985.694 417.448 1070.07 414.743 1079.7 414.454C1176.46 411.85 1273.24 409.864 1370.04 408.496C1374.9 408.469 1379.79 408.71 1384.65 408.794C1409.59 409.23 1434.53 407.716 1459.51 408.102L1502.96 408.758C1504.58 408.785 1518.04 410.312 1518.31 408.748C1519.95 399.421 1518.99 369.548 1525.43 362.747C1528.62 362.076 1527.39 361.98 1530.42 363.055C1538.81 370.849 1524.07 406.109 1534.5 409.943C1544.89 404.918 1534.46 358.03 1552.86 370.097C1555.81 373.702 1554.89 376.392 1553.82 380.604C1551.4 390.209 1550.68 399.398 1550.38 409.246C1562.38 411.642 1572.09 409.827 1582.29 410.6C1603.54 412.21 1657.19 410.379 1674.81 417.206L1671.82 418.236L1671.61 418.204C1665.06 417.287 1652.85 418.5 1645.35 418.19C1626.46 417.639 1607.26 416.959 1588.39 417.474C1580.97 417.677 1554.26 415.142 1549.99 418.343C1549.02 422.203 1552.42 424.731 1552.15 429.285C1542.78 437.989 1542.92 413.594 1534.71 415.944C1531.52 416.857 1532.52 416.025 1530.55 418.506C1528.45 426.431 1534.4 435.389 1530.11 441.208C1527.59 442.129 1527.13 442.027 1524.48 441.356C1522.68 435.339 1522.32 425.082 1520.25 416.731C1499.28 414.718 1470.36 415.396 1448.85 415.477C1413.77 415.283 1378.69 415.589 1343.62 416.395C1334.36 416.576 1292.28 418.463 1286.88 417.175C1280.14 417.037 1273.42 417.273 1266.71 417.893C1251.01 419.347 1235.23 418.218 1219.51 418.928C1201.75 419.371 1183.6 420.286 1165.91 420.477C1144.57 420.707 1125.36 420.418 1103.98 421.985C1085.2 423.89 1060.98 421.855 1041.46 422.994C1038.58 423.659 1012.53 424.29 1008.89 424.213C1010.83 423.874 1012.02 423.663 1013.89 423.058L1014.59 421.651C1012.21 418.646 1008.79 418.708 1005.75 420.789L1005.94 424.368C991.665 425.755 972.135 425.319 957.417 425.436L559.77 431.149C526.774 431.919 493.05 431.152 459.986 433.346C457.223 434.021 453.652 436.998 451.824 438.754C381.178 506.504 261.012 506.17 175.314 469.871C158.881 462.91 141.413 451.56 125.525 445.641C116.095 442.128 84.9125 448.78 73.4655 445.772C65.7005 443.731 43.3524 440.847 38.7543 434.996C38.475 433.809 37.8956 432.522 38.6042 431.72C45.576 423.823 74.405 416.564 83.9738 413.738ZM93.9713 410.53C172.166 393.692 251.04 380.178 330.381 370.022L408.605 360.245C425.708 358.262 451.404 355.814 467.97 351.569C468.173 341.296 468.298 331.357 469.145 321.1C470.821 319.039 472.75 316.772 474.342 314.685C477.183 298.354 472.423 281.029 475.049 262.888C476.202 254.28 474.254 226.234 480.165 221.969C482.104 220.57 484.011 220.627 486.262 221.052C487.214 221.231 488.602 222.49 489.148 223.267C495.606 232.456 492.131 294.636 491.155 309.955C490.711 316.921 486.322 343.766 489.013 348.454C496.716 349.428 546.056 341.486 557.274 339.845C592.825 334.421 628.269 328.33 663.59 321.576C731.756 308.825 1045.18 256.737 956.941 140.45C905.898 73.1923 746.187 26.0469 662.733 17.4984C619.184 13.0375 571.346 8.41835 527.387 9.1377C519.175 9.09395 504.293 8.66249 496.905 9.49356C393.963 11.3081 278.764 22.1316 183.29 62.5138C148.214 77.3494 97.8577 113.353 72.2128 141.229C37.9761 178.444 9.04979 229.285 10.4135 281.165C11.6512 328.255 35.8796 358.494 68.9421 389.291C75.3088 395.347 86.8434 405.647 93.9713 410.53ZM123.423 431.647C127.141 434.598 128.931 436.046 133.879 435.985C141.05 435.897 148.323 435.395 155.487 435.112C169.603 434.667 183.716 434.114 197.824 433.457L328.329 427.976C367.893 426.555 407.743 426.786 447.324 425.835C448.716 425.802 451.446 425.115 452.893 424.772C471.712 399.229 468.79 389.652 468.93 361.065C465.951 361.158 461.729 361.151 458.868 361.396C448.27 363.863 437.142 364.748 426.333 366.219C360.687 375.156 295.676 383.397 230.338 394.655C187.45 402.044 148.21 406.644 105.781 417.822C109.791 423.264 117.652 427.157 123.423 431.647ZM89.7647 422.053C86.5838 422.408 56.7213 432.142 56.0162 433.063C60.4971 435.329 75.418 436.744 80.5989 436.906C89.8994 437.448 104.187 438.746 112.96 436.222L112.831 435.3C105.58 430.318 96.8655 421.841 89.7647 422.053ZM916.509 325.039L916.238 325.207C910.579 328.65 906.604 325.942 900.395 330.141C887.632 338.771 846.1 411.172 878.163 413.423C885.571 412.157 889.989 410.704 896.1 405.591C913.166 391.325 932.754 366.662 929.805 343.17C928.984 336.62 924.081 339.636 923.826 335.476C923.555 330.873 923.293 324.038 916.509 325.039ZM144.068 444.202C161.375 454.581 179.772 463.022 198.928 469.375C266.973 496.699 385.314 491.72 442.478 436.576C442.618 436.441 442.84 435.325 442.88 435.08L442.112 433.589C437.453 433.315 407.615 433.126 404.537 433.788C385.142 435.445 365.669 434.673 346.274 435.421C290.046 437.074 233.848 439.589 177.697 442.964C167.315 443.664 152.983 443.199 144.068 444.202ZM997.315 295.514C986.795 307.564 950.075 347.411 937.854 355.674L937.608 355.839C936.031 375.382 920.41 397.105 906.226 409.693C903.146 412.428 899.878 414.661 901.791 417.165C904.723 417.97 905.602 417.981 908.542 418.018C914.299 418.233 920.295 417.782 926.175 417.747C938.183 417.676 952.12 418.735 963.93 416.932C952.596 389.929 973.096 359.855 981.924 334.893C986.4 322.238 995.032 309.669 999.755 296.864L997.315 295.514Z" fill="white"/>
<path d="M1041.46 422.994C1041.13 422.283 1041.27 422.441 1041.6 421.444C1047.06 421.118 1045.85 421.254 1050.47 419.079C1051.91 418.399 1052.27 420.601 1054.79 420.365L1056.23 418.153C1068.65 417.832 1080.79 417.081 1093.21 417.823C1100.09 418.235 1098.28 420.057 1103.98 421.985C1085.2 423.89 1060.98 421.855 1041.46 422.994Z" fill="white"/>
<path d="M1274.34 413.319C1278.66 413.51 1283.84 413.402 1287.1 416.307L1286.88 417.175C1280.14 417.037 1273.42 417.273 1266.71 417.893C1251.01 419.347 1235.23 418.218 1219.51 418.928C1227.12 413.634 1242.55 414.067 1251.58 414.878C1262.35 415.848 1263.94 418.728 1274.34 413.319Z" fill="white"/>
<path d="M1451.69 125.434C1454.38 125.954 1456.66 126.137 1458.74 127.956C1459.27 129.172 1460.15 130.756 1459.61 132.069C1455.55 141.806 1450.14 151.536 1447.15 161.657C1444.89 170.094 1440.73 179.357 1439.05 187.867C1433.58 215.493 1427.65 242.937 1421.49 270.398C1418.83 282.276 1415.7 296.324 1414.21 308.231C1427.95 290.499 1440.83 273.129 1456.21 256.513C1462.29 249.941 1470.48 241.83 1479.65 240.051C1483.67 239.271 1486.66 245.227 1486.49 248.697C1482.99 253.827 1479.3 249.829 1476.22 251.848C1467.1 257.597 1461.12 267.737 1454 275.483C1433.85 297.408 1411.8 323.828 1403.34 353.142C1425.56 378.166 1476.14 362.462 1483.21 375.657C1483.21 378.307 1483.51 377.357 1482.1 379.531C1473.38 383.705 1407.73 377.866 1398.4 372.548C1391.66 368.705 1394.5 344.671 1396.62 337.002C1396.7 336.862 1396.78 336.722 1396.86 336.581C1405.65 321.194 1412.76 274.163 1416.77 254.652L1426.29 206.541C1429.04 192.667 1431.89 180.952 1433.13 166.73C1412.23 203.427 1386.14 234.824 1357.93 266.008C1346.26 278.911 1335.33 293.89 1321.06 304.204C1316.48 307.514 1301.06 308.694 1297.78 302.775L1298.61 300.943C1301.13 298.832 1304.42 299.473 1307.83 299.627C1318.14 294.46 1328.33 281.203 1336.52 272.734C1364.6 243.732 1390.62 212.467 1413.61 179.263C1424.39 163.705 1437.72 138.159 1451.69 125.434Z" fill="white"/>
<path d="M1005.94 424.368L1005.75 420.789C1008.79 418.708 1012.21 418.646 1014.59 421.651L1013.89 423.058C1012.02 423.663 1010.83 423.874 1008.89 424.213L1005.94 424.368Z" fill="white"/>
<path d="M1674.81 417.206C1677.34 417.058 1677.75 416.642 1679.84 417.717C1677.24 419.155 1674.8 418.559 1671.82 418.236L1674.81 417.206Z" fill="white"/>
</svg>
