<svg width="1682" height="817" viewBox="0 0 1682 817" fill="none" xmlns="http://www.w3.org/2000/svg">
<path d="M1076.09 0H1077.41C1085.27 7.64093 1076.31 15.3038 1069.83 21.3334C1009.85 77.1831 946.291 128.991 882.403 180.269C813.025 235.371 744.438 291.457 676.658 348.512L602.782 410.065C594.099 417.361 575.457 432.242 568.282 439.628C586.681 435.156 606.953 431.888 625.669 428.467C698.107 415.223 771.051 403.677 843.991 393.537C869.705 389.962 865.771 390.546 888.365 376.787C899.444 370.14 910.581 363.606 921.792 357.187C968.794 329.875 1016.13 303.155 1063.8 277.037C1173.58 217.407 1285.84 162.48 1400.3 112.404C1452.73 88.75 1505.88 66.7087 1559.67 46.3123C1583.87 36.9957 1608.51 26.6874 1633.28 19.1042C1643.85 15.8654 1669.67 3.44147 1678.8 5.77908C1681.12 7.43307 1680.47 6.50816 1681.24 9.25312C1678.11 14.8153 1636.12 30.7013 1627.39 34.0799C1609.09 41.1597 1591.65 49.7491 1573.8 57.6373C1380.69 141.954 1191.83 235.716 1007.93 338.587C996.866 344.703 935.68 377.227 930.037 383.304C967.48 377.146 1008.58 373.312 1046.5 369.392L1151.67 358.186C1272.47 345.685 1394.15 329.589 1515.8 332.251C1529.92 332.559 1573.53 332.443 1577.8 347.997C1575.78 355.207 1556.57 361.25 1549.67 363.624C1487.36 385.037 1423.71 401.923 1360.61 420.674C1340.52 426.641 1320.27 433.347 1300.3 439.601C1250.5 454.939 1200.92 471.031 1151.6 487.873C1103.67 504.532 1055.92 521.685 1008.36 539.327C995.855 544.088 983.511 549.545 970.954 554.378L841.65 604.109L742.445 641.971C716.137 651.956 667.818 670.073 641.177 675.368C631.341 678.363 607.995 679.52 623.619 664.578C625.548 662.734 623.963 657.604 623.492 655.039C616.357 653.065 602.334 667.829 595.061 663.763C591.569 657.522 597.672 654.699 601.769 650.951C595.4 654.191 587.719 659.125 580.833 658.59C578.454 657.271 579.144 658.11 578.309 655.408C579.885 647.511 589.364 642.239 595.049 637.157C628.833 606.956 666.702 581.569 702.366 553.677C716.944 542.277 733.766 530.663 746.753 517.635C711.641 528.443 673.639 552.612 640.808 569.809C611.341 585.243 582.745 603.092 553.896 619.637C544.927 624.935 506.522 651.464 500.855 651.139C498.654 649.574 499.304 650.464 498.525 647.679C498.991 646.408 589.666 585.277 598.861 578.746C651.171 541.591 706.969 508.015 761.844 474.75C791.869 456.787 821.997 438.989 852.212 421.36C863.414 414.862 891.65 399.39 900.734 392.387C892.619 393.154 871.956 394.52 865.697 397.399C859.398 400.293 847.112 408.503 840.599 412.417C816.519 426.546 792.756 441.206 769.324 456.384C705.847 496.393 642.639 536.827 579.704 577.685L511.552 622.234C485.297 639.729 460.225 658.204 431.56 671.394C424.966 674.429 409.729 686.38 402.263 681.451C399.829 672.711 420.818 655.157 427.387 649.314C423.588 651.537 418.31 655.441 414.386 655.439C411.12 653.949 410.785 653.169 409.45 649.537L409.238 648.953C402.399 653.81 400.349 652.276 392.982 655.579C389.021 657.355 383.03 665.776 378.003 667.212C374.6 668.184 373.005 666.47 369.622 666.414C364.145 668.914 355.073 680.022 348.521 677.491C343.924 672.297 347.297 668.858 350.993 664.078C345.555 666.231 342.685 668.067 337.166 665.935C332.189 658.421 351.986 650.639 351.624 644.872C349.786 645.252 347.988 646.238 346.523 647.384C299.82 683.935 250.13 722.255 206.544 762.091C195.388 772.302 184.354 782.644 173.444 793.118C165.342 800.894 155.963 811.093 146.735 817H144.772C144.051 815.864 143.655 814.888 143.112 813.673C144.839 804.649 195.31 764.31 205.556 755.264C239.851 724.985 272.355 692.864 306.137 662.031C310.923 657.663 315.112 652.437 319.947 648.161C327.11 641.826 334.899 636.326 342.018 629.904L456.381 527.236C485.815 501.302 518.534 475.971 547.572 449.309C529.72 451.92 501.999 457.91 484.875 462.765C478.464 464.582 451.604 491.125 444.251 497.819C390.73 546.881 338.973 597.83 289.076 650.57C280.829 659.262 275.308 670.181 265.098 678.247C260.584 681.813 249.317 702.526 240.081 696.583C238.792 690.503 247.042 684.162 251.077 680.833C249.778 679.543 248.487 678.191 247.206 676.879C246.503 674.72 247.414 672.807 248.133 670.645C245.983 669.668 238.001 681.397 233.459 676.903C232.889 668.614 264.029 647.101 270.768 641.178C272.442 639.707 275.176 639.889 277.202 640.401C279.291 642.643 276.606 645.316 278.337 649.28C281.911 648.486 315.003 613.924 319.994 608.913C347.207 581.256 374.848 554.023 402.908 527.224C423.967 507.32 447.478 486.767 467.909 466.754C458.78 467.7 443.725 471.712 434.435 473.926C412.366 479.21 390.351 484.721 368.395 490.457C281.058 512.666 194.384 537.404 108.482 564.638C87.5196 571.246 66.201 579.264 44.9736 585.393C34.5342 588.408 12.03 597.732 2.14732 597.754L1.88281 596.833C7.19445 592.476 192.125 533.852 211.082 528.199C271.048 510.957 331.247 494.535 391.663 478.94C412.102 473.532 456.067 464.406 476.13 458.272C480.483 456.941 514.226 424.939 520.247 419.443C540.844 400.598 561.729 382.069 582.896 363.866C662.334 294.593 743.798 227.676 827.179 163.202C880.727 121.882 935.064 80.6826 992.201 44.464C1015.58 29.645 1049.67 6.55687 1076.09 0ZM591.516 647.275C607.356 642.708 626.885 623.748 640.018 613.845C641.433 612.779 645.773 617.134 646.424 618.731C646.3 624.865 618.439 644.247 612.535 649.755C615.476 648.54 621.337 645.918 624.071 645.041C627.189 643.743 629.832 642.244 633.053 643.955C633.916 644.414 638.483 646.322 639.126 646.157C654.349 642.259 667.401 632.763 681.303 625.848C686.796 623.116 692.544 623.381 698.235 621.529C703.586 619.875 707.607 616.995 712.712 615.138C714.129 614.622 715.94 614.762 717.41 615.116C719.162 616.745 718.722 615.906 719.062 618.27C712.716 628.268 669.149 654.288 656.433 660.468C653.001 662.136 636.55 661.783 633.314 666.821L633.904 668.327L635.569 669C680.221 659.427 727.169 638.984 770.219 623.708C835.367 600.594 899.198 574.343 963.669 549.447C1026.92 524.847 1090.71 501.628 1154.96 479.806C1231.41 453.828 1308.31 429.256 1385.66 406.099L1494.19 374.117C1510.73 369.104 1546.83 358.133 1562.32 351.223C1561.52 349.389 1561.4 349.879 1561.79 348.314L1566.48 348.022L1566.15 347.119C1563.01 345.805 1532.21 339.67 1528.04 339.379C1473.88 335.596 1421.64 339.53 1367.94 343.207C1303.07 347.92 1238.31 354.076 1173.71 361.672L1038.09 376.047L962.634 384.396C956.089 385.103 921.611 388.787 917.151 390.617C903.945 396.045 880.727 410.598 867.348 418.209C831.581 438.635 796.06 459.493 760.799 480.781C723.651 502.964 688.324 524.096 652.137 548.109L619.603 569.798C613.146 574.067 603.002 580.38 597.464 585.121C591.048 590.138 589.02 590.019 582.535 596.197C587.667 593.576 595.188 589.599 599.835 586.428C621.725 573.605 736.189 506.552 752.662 510.891C753.436 511.095 754.075 511.409 754.734 511.849C757.681 517.92 746.451 526.995 741.878 530.76C693.749 570.381 637.5 605.312 591.516 647.275ZM285.196 688.545C290.194 686.152 291.664 684.924 295.96 681.513C299.161 679.613 320.753 662.669 320.211 659.679C313.635 659.829 297.95 675.319 293.217 680.5C290.366 683.224 287.879 685.624 285.196 688.545ZM1611.9 31.9822C1587.93 42.9956 1559.96 51.9828 1535.4 61.8692C1483.86 82.6566 1432.65 104.288 1381.81 126.752C1231.2 194.313 1084.26 269.797 941.634 352.888C935.942 356.211 882.797 386.068 881.491 388.731C882.025 388.747 883.61 388.832 884.045 388.775L884.448 388.654C893.95 385.887 908.199 386.849 915.279 384.005C924.682 380.225 938.891 371.544 948.138 366.236C966.231 355.763 984.398 345.424 1002.65 335.22C1064.08 300.828 1126.02 267.343 1188.44 234.775C1289.38 182.692 1391.7 133.334 1495.3 86.7588C1505.49 82.0986 1613.86 34.7153 1614.8 32.8471C1614.89 32.6654 1614.96 32.4733 1615.04 32.2864L1611.9 31.9822ZM1070.11 9.22611C1057.36 11.6242 1038.08 25.1767 1026.13 31.0398C1001.75 42.9969 981.154 58.6363 958.717 73.641C894.237 116.76 833.174 164.954 772.733 213.524C690.946 278.645 611.207 346.296 533.633 416.38C523.843 425.388 513.354 434.044 503.584 443.113C500.377 446.09 493.918 451.16 491.521 454.172L491.452 456.139C511.183 450.338 532.127 447.548 552.078 442.553C560.275 440.499 571.128 429.643 577.755 423.986L609.492 397.24L720.302 304.353C755.03 275.51 789.779 247.383 825.077 218.404C907.189 150.984 995.896 87.8246 1069.65 11.0867C1069.86 10.8686 1070.08 9.59601 1070.11 9.22611ZM847.325 398.51C816.699 403.688 785.554 407.383 754.795 412.163C709.309 419.218 663.934 426.967 618.685 435.406C599.771 438.751 576.7 441.779 558.709 447.746C555.509 448.808 532.775 470.036 527.989 473.761C503.577 492.767 480.993 514.781 457.413 534.654C430.047 557.717 403.353 581.162 376.719 605.054C369.617 611.333 344.783 632.324 339.982 637.907C342.021 637.172 350.336 634.196 351.737 633.221C358.388 628.596 386.963 610.634 393.869 613.311C393.478 621.336 371.82 628.771 365.898 634.256C368.166 642.279 367.448 641.131 362.55 647.567C366.264 653.106 368.183 647.391 367.484 657.318C369.825 657.113 370.804 655.968 372.215 655.801C377.019 655.232 377.729 656.812 382.231 654.31C391.711 645.201 411.424 635.824 424.05 632.213C427.577 633.72 433.492 636.47 437.187 634.719C442.705 632.103 453.622 624.296 460.149 626.187C462.259 629.26 459.715 634.145 457.236 636.139C441.64 648.692 424.029 660.174 410.455 675.097C421.71 671.184 436.322 663.542 446.443 657.258C493.045 628.318 539.016 597.961 584.835 567.831L719.531 480.918L797.268 432.246C806.221 426.733 845.896 403.969 850.101 399.062L849.502 398.271L847.325 398.51Z" fill="white"/>
<path d="M597.464 585.121L599.835 586.428C595.188 589.599 587.667 593.576 582.535 596.197C589.02 590.019 591.048 590.138 597.464 585.121Z" fill="white"/>
<path d="M285.196 688.545C287.879 685.624 290.366 683.224 293.217 680.5L295.96 681.513C291.664 684.924 290.194 686.152 285.196 688.545Z" fill="white"/>
</svg>
