<svg width="62" height="80" viewBox="0 0 62 80" fill="none" xmlns="http://www.w3.org/2000/svg">
<mask id="mask0_10_512" style="mask-type:luminance" maskUnits="userSpaceOnUse" x="0" y="0" width="62" height="80">
<path d="M61.6 0.15271H0V79.8472H61.6V0.15271Z" fill="white"/>
</mask>
<g mask="url(#mask0_10_512)">
<path d="M61.0866 17.4799L31.3133 0.290254C30.9957 0.106862 30.6043 0.106862 30.2866 0.290254L0.513337 17.4799C0.195671 17.6634 0 18.0024 0 18.3692V42.4741C0 52.5231 4.90219 61.9402 13.1337 67.7041L30.211 79.6616C30.5645 79.9091 31.0352 79.9091 31.3888 79.6616L48.4662 67.7041C56.6978 61.9402 61.6 52.5231 61.6 42.4741V18.3692C61.6 18.0024 61.4043 17.6634 61.0866 17.4799ZM55.4399 42.4741C55.4399 50.5131 51.5182 58.0469 44.9329 62.6579L31.3888 72.1414C31.0353 72.3889 30.5648 72.3889 30.211 72.1414L16.6671 62.6579C10.0818 58.0469 6.16005 50.5131 6.16005 42.4741V21.9257C6.16005 21.559 6.35572 21.2199 6.67338 21.0365L30.2866 7.4033C30.6043 7.2199 30.9957 7.2199 31.3133 7.4033L54.9266 21.0365C55.2442 21.2199 55.4399 21.559 55.4399 21.9257V42.4741Z" fill="white"/>
<path d="M50.82 23.4075L31.3134 12.1454C30.9958 11.962 30.6045 11.962 30.2867 12.1454L10.7802 23.4075C10.4625 23.591 10.2669 23.93 10.2669 24.2968V42.4744C10.2669 49.1738 13.5351 55.4517 19.0227 59.2945L32.0011 68.3821C32.3544 68.6295 32.8251 68.6295 33.1788 68.3821L36.7586 65.8754C37.2231 65.5503 37.336 64.9103 37.0106 64.4457C36.942 64.3474 36.8565 64.2622 36.7586 64.1937L22.5557 54.2486C18.7144 51.5589 16.4266 47.1641 16.4266 42.4748V27.8535C16.4266 27.4867 16.6223 27.1477 16.94 26.9644L30.2867 19.2586C30.6045 19.0753 30.9958 19.0753 31.3134 19.2586L44.6603 26.9644C44.9779 27.1477 45.1735 27.4867 45.1735 27.8535V42.4748C45.1735 47.1641 42.8857 51.5589 39.0445 54.2486L33.7913 57.9269C33.3267 58.2519 33.2138 58.8922 33.5392 59.3565C33.6078 59.4548 33.6933 59.54 33.7913 59.6086L37.371 62.1153C37.7244 62.3627 38.1951 62.3627 38.5487 62.1153L42.5774 59.2941C48.0654 55.4515 51.3334 49.1734 51.3334 42.4741V24.2965C51.3334 23.9297 51.1376 23.591 50.82 23.4075Z" fill="white"/>
<path d="M29.7732 47.6709H31.8265C32.3935 47.6709 32.8532 47.2111 32.8532 46.6441V39.4574C32.8532 39.1341 33.0053 38.8301 33.2638 38.636C35.0782 37.2751 35.4459 34.7013 34.0851 32.8867C32.7242 31.0723 30.1504 30.7044 28.3359 32.0654C26.5215 33.4263 26.1536 36.0001 27.5145 37.8147C27.7481 38.1258 28.0247 38.4024 28.3359 38.636C28.5944 38.8298 28.7464 39.1341 28.7464 39.4574V46.6441C28.7464 47.2111 29.2062 47.6709 29.7732 47.6709Z" fill="white"/>
</g>
</svg>
