<svg width="154" height="28" viewBox="0 0 154 28" fill="none" xmlns="http://www.w3.org/2000/svg">
<path d="M18.312 26.344L16.128 23.88C14.5413 24.8507 12.7773 25.336 10.836 25.336C7.98 25.336 5.64667 24.3653 3.836 22.424C2.044 20.464 1.148 17.944 1.148 14.864C1.148 11.8027 2.05333 9.292 3.864 7.332C5.67467 5.372 8.008 4.392 10.864 4.392C13.7387 4.392 16.0813 5.372 17.892 7.332C19.7027 9.27333 20.608 11.784 20.608 14.864C20.608 17.8693 19.7307 20.352 17.976 22.312L20.104 24.72L18.312 26.344ZM17.724 14.864C17.724 12.512 17.0893 10.6267 15.82 9.208C14.5693 7.77067 12.9173 7.052 10.864 7.052C8.81067 7.052 7.15867 7.77067 5.908 9.208C4.65733 10.6267 4.032 12.512 4.032 14.864C4.032 17.216 4.65733 19.1107 5.908 20.548C7.15867 21.9853 8.81067 22.704 10.864 22.704C12.152 22.704 13.2907 22.4053 14.28 21.808L11.62 18.812L13.412 17.188L16.1 20.212C17.1827 18.812 17.724 17.0293 17.724 14.864ZM32.4336 11.308H35.0376V25H32.6856L32.4056 22.928C32.0136 23.656 31.3976 24.244 30.5576 24.692C29.7176 25.1213 28.7936 25.336 27.7856 25.336C26.2176 25.336 24.995 24.8413 24.1176 23.852C23.2403 22.8627 22.8016 21.5187 22.8016 19.82V11.308H25.4336V18.952C25.4336 21.6587 26.5256 23.012 28.7096 23.012C29.923 23.012 30.847 22.6293 31.4816 21.864C32.1163 21.0987 32.4336 19.988 32.4336 18.532V11.308ZM40.6763 7.556C40.3403 7.892 39.9297 8.06 39.4443 8.06C38.959 8.06 38.5483 7.892 38.2123 7.556C37.8763 7.20133 37.7083 6.79067 37.7083 6.324C37.7083 5.83867 37.8763 5.428 38.2123 5.092C38.5483 4.756 38.959 4.588 39.4443 4.588C39.9297 4.588 40.3403 4.756 40.6763 5.092C41.0123 5.428 41.1803 5.83867 41.1803 6.324C41.1803 6.79067 41.0123 7.20133 40.6763 7.556ZM38.1563 25V11.308H40.7883V25H38.1563ZM43.0135 18.168C43.0135 16.0213 43.6295 14.276 44.8615 12.932C46.1121 11.588 47.7361 10.916 49.7335 10.916C51.4508 10.916 52.8695 11.3733 53.9895 12.288C55.1281 13.184 55.8188 14.3973 56.0615 15.928H53.4295C53.2055 15.0693 52.7668 14.416 52.1135 13.968C51.4788 13.5013 50.7135 13.268 49.8175 13.268C48.5668 13.268 47.5495 13.716 46.7655 14.612C46.0001 15.4893 45.6175 16.6653 45.6175 18.14C45.6175 19.6147 45.9815 20.7907 46.7095 21.668C47.4561 22.5453 48.4548 22.984 49.7055 22.984C50.6388 22.984 51.4321 22.76 52.0855 22.312C52.7575 21.8453 53.2148 21.2013 53.4575 20.38H56.0895C55.8281 21.8733 55.1095 23.0773 53.9335 23.992C52.7575 24.888 51.3481 25.336 49.7055 25.336C47.6895 25.336 46.0655 24.6827 44.8335 23.376C43.6201 22.0693 43.0135 20.3333 43.0135 18.168ZM60.8545 25H58.2225V4.392H60.8545V17.748L66.9305 11.308H70.2345L64.9985 16.768L70.2065 25H67.1825L63.1785 18.672L60.8545 21.108V25ZM70.9573 10.216C70.9573 8.48 71.5919 7.08 72.8613 6.016C74.1493 4.93333 75.8386 4.392 77.9293 4.392C79.8519 4.392 81.4013 4.896 82.5773 5.904C83.7533 6.912 84.3973 8.29333 84.5093 10.048H81.7373C81.6626 9.04 81.2893 8.256 80.6173 7.696C79.9453 7.136 79.0399 6.856 77.9013 6.856C76.6319 6.856 75.6146 7.15467 74.8493 7.752C74.0839 8.34933 73.7013 9.14267 73.7013 10.132C73.7013 11.7187 74.6439 12.736 76.5293 13.184L79.8613 13.968C83.1839 14.7333 84.8453 16.5347 84.8453 19.372C84.8453 21.1827 84.1919 22.6293 82.8853 23.712C81.5973 24.7947 79.8706 25.336 77.7053 25.336C75.6333 25.336 73.9626 24.832 72.6933 23.824C71.4239 22.816 70.7519 21.444 70.6773 19.708H73.4772C73.5146 20.6787 73.9066 21.4533 74.6533 22.032C75.4186 22.592 76.4359 22.872 77.7053 22.872C79.0493 22.872 80.1133 22.5827 80.8973 22.004C81.6999 21.4067 82.1013 20.604 82.1013 19.596C82.1013 17.9907 81.1679 16.9733 79.3013 16.544L75.9693 15.788C72.6279 15.0227 70.9573 13.1653 70.9573 10.216ZM93.0534 25.336C91.0374 25.336 89.3947 24.6733 88.1254 23.348C86.8747 22.0227 86.2494 20.296 86.2494 18.168C86.2494 16.0213 86.8654 14.276 88.0974 12.932C89.3481 11.588 90.9627 10.916 92.9414 10.916C94.8827 10.916 96.4414 11.532 97.6174 12.764C98.7934 13.996 99.3814 15.6293 99.3814 17.664V18.644L88.7974 18.672C88.8907 20.1093 89.3014 21.22 90.0294 22.004C90.7761 22.7693 91.8027 23.152 93.1094 23.152C95.2001 23.152 96.4787 22.3493 96.9454 20.744H99.4094C99.0734 22.2187 98.3547 23.3573 97.2534 24.16C96.1521 24.944 94.7521 25.336 93.0534 25.336ZM92.9414 13.128C91.8027 13.128 90.8787 13.4547 90.1694 14.108C89.4601 14.7613 89.0214 15.6947 88.8534 16.908H96.7494C96.7494 15.7693 96.4041 14.8547 95.7134 14.164C95.0227 13.4733 94.0987 13.128 92.9414 13.128ZM100.725 18.168C100.725 16.0213 101.341 14.276 102.573 12.932C103.824 11.588 105.448 10.916 107.445 10.916C109.163 10.916 110.581 11.3733 111.701 12.288C112.84 13.184 113.531 14.3973 113.773 15.928H111.141C110.917 15.0693 110.479 14.416 109.825 13.968C109.191 13.5013 108.425 13.268 107.529 13.268C106.279 13.268 105.261 13.716 104.477 14.612C103.712 15.4893 103.329 16.6653 103.329 18.14C103.329 19.6147 103.693 20.7907 104.421 21.668C105.168 22.5453 106.167 22.984 107.417 22.984C108.351 22.984 109.144 22.76 109.797 22.312C110.469 21.8453 110.927 21.2013 111.169 20.38H113.801C113.54 21.8733 112.821 23.0773 111.645 23.992C110.469 24.888 109.06 25.336 107.417 25.336C105.401 25.336 103.777 24.6827 102.545 23.376C101.332 22.0693 100.725 20.3333 100.725 18.168ZM125.342 11.308H127.946V25H125.594L125.314 22.928C124.922 23.656 124.306 24.244 123.466 24.692C122.626 25.1213 121.702 25.336 120.694 25.336C119.126 25.336 117.904 24.8413 117.026 23.852C116.149 22.8627 115.71 21.5187 115.71 19.82V11.308H118.342V18.952C118.342 21.6587 119.434 23.012 121.618 23.012C122.832 23.012 123.756 22.6293 124.39 21.864C125.025 21.0987 125.342 19.988 125.342 18.532V11.308ZM138.905 11.196V13.604H137.729C136.478 13.604 135.489 13.968 134.761 14.696C134.052 15.424 133.697 16.4413 133.697 17.748V25H131.065V11.336H133.529L133.697 13.408C133.977 12.68 134.453 12.1013 135.125 11.672C135.797 11.2427 136.59 11.028 137.505 11.028C137.916 11.028 138.382 11.084 138.905 11.196ZM146.582 25.336C144.566 25.336 142.923 24.6733 141.654 23.348C140.403 22.0227 139.778 20.296 139.778 18.168C139.778 16.0213 140.394 14.276 141.626 12.932C142.876 11.588 144.491 10.916 146.47 10.916C148.411 10.916 149.97 11.532 151.146 12.764C152.322 13.996 152.91 15.6293 152.91 17.664V18.644L142.326 18.672C142.419 20.1093 142.83 21.22 143.558 22.004C144.304 22.7693 145.331 23.152 146.638 23.152C148.728 23.152 150.007 22.3493 150.474 20.744H152.938C152.602 22.2187 151.883 23.3573 150.782 24.16C149.68 24.944 148.28 25.336 146.582 25.336ZM146.47 13.128C145.331 13.128 144.407 13.4547 143.698 14.108C142.988 14.7613 142.55 15.6947 142.382 16.908H150.278C150.278 15.7693 149.932 14.8547 149.242 14.164C148.551 13.4733 147.627 13.128 146.47 13.128Z" fill="white"/>
</svg>
