<svg width="132" height="105" viewBox="0 0 132 105" fill="none" xmlns="http://www.w3.org/2000/svg">
<mask id="mask0_10_491" style="mask-type:luminance" maskUnits="userSpaceOnUse" x="42" y="0" width="48" height="62">
<path d="M89.9615 0H42.0385V62H89.9615V0Z" fill="white"/>
</mask>
<g mask="url(#mask0_10_491)">
<path d="M89.5622 13.4801L66.3993 0.107005C66.1523 -0.0356684 65.8478 -0.0356684 65.6006 0.107005L42.4379 13.4801C42.1907 13.6228 42.0385 13.8866 42.0385 14.1719V32.9248C42.0385 40.7427 45.8523 48.0689 52.2562 52.553L65.5418 61.8556C65.8168 62.0482 66.183 62.0482 66.4581 61.8556L79.7438 52.553C86.1478 48.0689 89.9615 40.7427 89.9615 32.9248V14.1719C89.9615 13.8866 89.8093 13.6228 89.5622 13.4801ZM85.1692 32.9248C85.1692 39.179 82.1182 45.04 76.995 48.6272L66.4581 56.0051C66.1831 56.1977 65.8171 56.1977 65.5418 56.0051L55.005 48.6272C49.8818 45.04 46.8309 39.179 46.8309 32.9248V16.9388C46.8309 16.6535 46.9831 16.3897 47.2302 16.247L65.6006 5.64075C65.8478 5.49807 66.1523 5.49807 66.3993 5.64075L84.7698 16.247C85.0169 16.3897 85.1692 16.6535 85.1692 16.9388V32.9248Z" fill="white"/>
<path d="M81.575 18.0916L66.3995 9.32991C66.1524 9.18723 65.848 9.18723 65.6007 9.32991L50.4252 18.0916C50.1781 18.2343 50.0259 18.498 50.0259 18.7834V32.9251C50.0259 38.1369 52.5685 43.021 56.8377 46.0105L66.9345 53.0805C67.2094 53.2729 67.5756 53.2729 67.8507 53.0805L70.6356 51.1303C70.9971 50.8774 71.0849 50.3795 70.8317 50.0181C70.7784 49.9416 70.7119 49.8753 70.6356 49.822L59.5862 42.085C56.5978 39.9925 54.818 36.5735 54.818 32.9253V21.5504C54.818 21.2651 54.9702 21.0013 55.2174 20.8587L65.6007 14.8638C65.848 14.7212 66.1524 14.7212 66.3995 14.8638L76.7829 20.8587C77.03 21.0013 77.1822 21.2651 77.1822 21.5504V32.9253C77.1822 36.5735 75.4024 39.9925 72.414 42.085L68.3272 44.9466C67.9658 45.1995 67.8779 45.6976 68.1311 46.0588C68.1845 46.1353 68.251 46.2016 68.3272 46.2549L71.1121 48.2051C71.387 48.3975 71.7532 48.3975 72.0283 48.2051L75.1625 46.0103C79.432 43.0208 81.9744 38.1367 81.9744 32.9248V18.7831C81.9744 18.4978 81.8221 18.2343 81.575 18.0916Z" fill="white"/>
<path d="M65.2012 36.9678H66.7986C67.2397 36.9678 67.5973 36.6101 67.5973 36.169V30.5779C67.5973 30.3264 67.7157 30.0899 67.9168 29.9389C69.3283 28.8802 69.6144 26.8778 68.5558 25.4662C67.497 24.0546 65.4946 23.7684 64.083 24.8272C62.6714 25.8859 62.3852 27.8883 63.444 29.3C63.6257 29.542 63.8409 29.7572 64.083 29.9389C64.2841 30.0897 64.4024 30.3264 64.4024 30.5779V36.169C64.4024 36.6101 64.7601 36.9678 65.2012 36.9678Z" fill="white"/>
</g>
<path d="M15.7194 100.852L13.8474 98.74C12.4874 99.572 10.9754 99.988 9.31144 99.988C6.86344 99.988 4.86344 99.156 3.31144 97.492C1.77544 95.812 1.00744 93.652 1.00744 91.012C1.00744 88.388 1.78344 86.236 3.33544 84.556C4.88744 82.8759 6.88744 82.0359 9.33544 82.0359C11.7994 82.0359 13.8074 82.8759 15.3594 84.556C16.9114 86.22 17.6874 88.372 17.6874 91.012C17.6874 93.588 16.9354 95.716 15.4314 97.396L17.2554 99.46L15.7194 100.852ZM15.2154 91.012C15.2154 88.996 14.6714 87.38 13.5834 86.164C12.5114 84.932 11.0954 84.316 9.33544 84.316C7.57544 84.316 6.15944 84.932 5.08744 86.164C4.01544 87.38 3.47944 88.996 3.47944 91.012C3.47944 93.028 4.01544 94.652 5.08744 95.884C6.15944 97.116 7.57544 97.732 9.33544 97.732C10.4394 97.732 11.4154 97.476 12.2634 96.964L9.98344 94.396L11.5194 93.004L13.8234 95.596C14.7514 94.396 15.2154 92.868 15.2154 91.012ZM27.8237 87.964H30.0557V99.7H28.0397L27.7997 97.924C27.4637 98.548 26.9357 99.052 26.2157 99.436C25.4957 99.804 24.7037 99.988 23.8397 99.988C22.4957 99.988 21.4477 99.564 20.6957 98.716C19.9437 97.868 19.5677 96.716 19.5677 95.26V87.964H21.8237V94.516C21.8237 96.836 22.7597 97.996 24.6317 97.996C25.6717 97.996 26.4637 97.668 27.0077 97.012C27.5517 96.356 27.8237 95.404 27.8237 94.156V87.964ZM34.8889 84.748C34.6009 85.036 34.2489 85.18 33.8329 85.18C33.4169 85.18 33.0649 85.036 32.7769 84.748C32.4889 84.444 32.3449 84.092 32.3449 83.6919C32.3449 83.276 32.4889 82.924 32.7769 82.636C33.0649 82.348 33.4169 82.204 33.8329 82.204C34.2489 82.204 34.6009 82.348 34.8889 82.636C35.1769 82.924 35.3209 83.276 35.3209 83.6919C35.3209 84.092 35.1769 84.444 34.8889 84.748ZM32.7289 99.7V87.964H34.9849V99.7H32.7289ZM36.8921 93.844C36.8921 92.004 37.4201 90.508 38.4761 89.356C39.5481 88.204 40.9401 87.628 42.6521 87.628C44.1241 87.628 45.3401 88.02 46.3001 88.804C47.2761 89.572 47.8681 90.612 48.0761 91.924H45.8201C45.6281 91.188 45.2521 90.628 44.6921 90.244C44.1481 89.844 43.4921 89.644 42.7241 89.644C41.6521 89.644 40.7801 90.028 40.1081 90.796C39.4521 91.548 39.1241 92.556 39.1241 93.82C39.1241 95.084 39.4361 96.092 40.0601 96.844C40.7001 97.596 41.5561 97.972 42.6281 97.972C43.4281 97.972 44.1081 97.78 44.6681 97.396C45.2441 96.996 45.6361 96.444 45.8441 95.74H48.1001C47.8761 97.02 47.2601 98.052 46.2521 98.836C45.2441 99.604 44.0361 99.988 42.6281 99.988C40.9001 99.988 39.5081 99.428 38.4521 98.308C37.4121 97.188 36.8921 95.7 36.8921 93.844ZM52.1844 99.7H49.9284V82.0359H52.1844V93.484L57.3924 87.964H60.2244L55.7364 92.644L60.2004 99.7H57.6084L54.1764 94.276L52.1844 96.364V99.7ZM60.8439 87.028C60.8439 85.54 61.3879 84.34 62.4759 83.428C63.5799 82.4999 65.0279 82.0359 66.8199 82.0359C68.4679 82.0359 69.7959 82.4679 70.8039 83.332C71.8119 84.196 72.3639 85.38 72.4599 86.884H70.0839C70.0199 86.02 69.6999 85.348 69.1239 84.868C68.5479 84.388 67.7719 84.148 66.7959 84.148C65.7079 84.148 64.8359 84.404 64.1799 84.9159C63.5239 85.4279 63.1959 86.108 63.1959 86.956C63.1959 88.316 64.0039 89.188 65.6199 89.572L68.4759 90.244C71.3239 90.9 72.7479 92.444 72.7479 94.876C72.7479 96.428 72.1879 97.668 71.0679 98.596C69.9639 99.524 68.4839 99.988 66.6279 99.988C64.8519 99.988 63.4199 99.556 62.3319 98.692C61.2439 97.828 60.6679 96.652 60.6039 95.164H63.0039C63.0359 95.996 63.3719 96.66 64.0119 97.156C64.6679 97.636 65.5399 97.876 66.6279 97.876C67.7799 97.876 68.6919 97.628 69.3639 97.132C70.0519 96.62 70.3959 95.932 70.3959 95.068C70.3959 93.692 69.5959 92.82 67.9959 92.452L65.1399 91.804C62.2759 91.148 60.8439 89.556 60.8439 87.028ZM79.7835 99.988C78.0555 99.988 76.6475 99.42 75.5595 98.284C74.4875 97.148 73.9515 95.668 73.9515 93.844C73.9515 92.004 74.4795 90.508 75.5355 89.356C76.6075 88.204 77.9915 87.628 79.6875 87.628C81.3515 87.628 82.6875 88.156 83.6955 89.212C84.7035 90.268 85.2075 91.668 85.2075 93.412V94.252L76.1355 94.276C76.2155 95.508 76.5675 96.46 77.1915 97.132C77.8315 97.788 78.7115 98.116 79.8315 98.116C81.6235 98.116 82.7195 97.428 83.1195 96.052H85.2315C84.9435 97.316 84.3275 98.292 83.3835 98.98C82.4395 99.652 81.2395 99.988 79.7835 99.988ZM79.6875 89.524C78.7115 89.524 77.9195 89.804 77.3115 90.364C76.7035 90.924 76.3275 91.724 76.1835 92.764H82.9515C82.9515 91.788 82.6555 91.004 82.0635 90.412C81.4715 89.82 80.6795 89.524 79.6875 89.524ZM86.3593 93.844C86.3593 92.004 86.8873 90.508 87.9433 89.356C89.0153 88.204 90.4073 87.628 92.1193 87.628C93.5913 87.628 94.8073 88.02 95.7673 88.804C96.7433 89.572 97.3353 90.612 97.5433 91.924H95.2873C95.0953 91.188 94.7193 90.628 94.1593 90.244C93.6153 89.844 92.9593 89.644 92.1913 89.644C91.1193 89.644 90.2473 90.028 89.5753 90.796C88.9193 91.548 88.5913 92.556 88.5913 93.82C88.5913 95.084 88.9033 96.092 89.5273 96.844C90.1673 97.596 91.0233 97.972 92.0953 97.972C92.8953 97.972 93.5753 97.78 94.1353 97.396C94.7113 96.996 95.1033 96.444 95.3113 95.74H97.5673C97.3433 97.02 96.7273 98.052 95.7193 98.836C94.7113 99.604 93.5033 99.988 92.0953 99.988C90.3673 99.988 88.9753 99.428 87.9193 98.308C86.8793 97.188 86.3593 95.7 86.3593 93.844ZM107.46 87.964H109.692V99.7H107.676L107.436 97.924C107.1 98.548 106.572 99.052 105.852 99.436C105.132 99.804 104.34 99.988 103.476 99.988C102.132 99.988 101.084 99.564 100.332 98.716C99.5796 97.868 99.2036 96.716 99.2036 95.26V87.964H101.46V94.516C101.46 96.836 102.396 97.996 104.268 97.996C105.308 97.996 106.1 97.668 106.644 97.012C107.188 96.356 107.46 95.404 107.46 94.156V87.964ZM119.085 87.868V89.932H118.077C117.005 89.932 116.157 90.244 115.533 90.868C114.925 91.492 114.621 92.364 114.621 93.484V99.7H112.365V87.988H114.477L114.621 89.764C114.861 89.14 115.269 88.644 115.845 88.276C116.421 87.908 117.101 87.724 117.885 87.724C118.237 87.724 118.637 87.772 119.085 87.868ZM125.665 99.988C123.937 99.988 122.529 99.42 121.441 98.284C120.369 97.148 119.833 95.668 119.833 93.844C119.833 92.004 120.361 90.508 121.417 89.356C122.489 88.204 123.873 87.628 125.569 87.628C127.233 87.628 128.569 88.156 129.577 89.212C130.585 90.268 131.089 91.668 131.089 93.412V94.252L122.017 94.276C122.097 95.508 122.449 96.46 123.073 97.132C123.713 97.788 124.593 98.116 125.713 98.116C127.505 98.116 128.601 97.428 129.001 96.052H131.113C130.825 97.316 130.209 98.292 129.265 98.98C128.321 99.652 127.121 99.988 125.665 99.988ZM125.569 89.524C124.593 89.524 123.801 89.804 123.193 90.364C122.585 90.924 122.209 91.724 122.065 92.764H128.833C128.833 91.788 128.537 91.004 127.945 90.412C127.353 89.82 126.561 89.524 125.569 89.524Z" fill="white"/>
</svg>
